<?xml version="1.0" encoding="utf-8"?>
<!-- Generator: Adobe Illustrator 19.0.0, SVG Export Plug-In . SVG Version: 6.00 Build 0)  -->
<svg version="1.1" id="Capa_1" xmlns="http://www.w3.org/2000/svg" xmlns:xlink="http://www.w3.org/1999/xlink" x="0px" y="0px"
	 viewBox="0 0 800 285.9" style="enable-background:new 0 0 800 285.9;" xml:space="preserve">
<style type="text/css">
	.st0{fill:#FFFFFF;}
	.st1{fill:#D71920;}
</style>
<g id="XMLID_79_">
	<g id="XMLID_193_">
		<g id="XMLID_194_">
			<path class="st0" d="M92.7,213.8c-1.3,0-2.5-0.2-3.6-0.6c-1.1-0.4-2.1-1.1-2.9-2.1c-0.8-0.9-1.5-2.1-2-3.6
				c-0.5-1.5-0.7-3.2-0.7-5.3c0-1.9,0.2-3.5,0.6-4.9c0.4-1.4,0.9-2.6,1.6-3.5c0.7-0.9,1.4-1.7,2.2-2.2c0.8-0.5,1.6-0.9,2.3-1
				c0.7-0.2,1.4-0.2,2-0.2c1.2,0,2.4,0.2,3.4,0.7c1,0.5,1.9,1,2.5,1.8c0.7,0.7,1.1,1.5,1.5,2.2l-2.1,1.3c-0.2-0.4-0.5-0.8-0.8-1.2
				c-0.3-0.4-0.7-0.8-1.1-1.1c-0.4-0.3-0.9-0.6-1.4-0.8c-0.5-0.2-1.1-0.3-1.7-0.3c-1,0-1.8,0.2-2.6,0.6c-0.8,0.4-1.4,1-1.9,1.8
				c-0.5,0.8-0.9,1.8-1.2,3c-0.3,1.2-0.4,2.5-0.4,4c0,1.5,0.2,2.8,0.5,3.9c0.3,1.1,0.8,2.1,1.4,2.9c0.6,0.8,1.3,1.4,2,1.8
				c0.8,0.4,1.6,0.6,2.6,0.6c0.9,0,1.7-0.2,2.3-0.6c0.7-0.4,1.2-0.8,1.7-1.4c0.4-0.5,0.8-1,1-1.5l2,1.3c-0.5,0.9-1.1,1.8-1.8,2.5
				c-0.7,0.7-1.5,1.2-2.5,1.6C94.6,213.6,93.7,213.8,92.7,213.8z"/>
			<path class="st0" d="M112.6,213.6c-1.2,0-2.3-0.2-3.2-0.7c-0.9-0.5-1.7-1.1-2.3-1.9c-0.6-0.8-1.1-1.7-1.4-2.7
				c-0.3-1-0.5-2.1-0.5-3.1c0-1.1,0.1-2.1,0.4-3.1c0.3-1,0.8-1.9,1.4-2.7c0.6-0.8,1.4-1.4,2.3-1.9c0.9-0.5,2-0.7,3.2-0.7
				c1.7,0,3.2,0.5,4.4,1.5c1.2,1,2,2.1,2.4,3.4c0.4,1.3,0.6,2.5,0.6,3.5c0,1.1-0.1,2.1-0.4,3.1c-0.3,1-0.8,1.9-1.4,2.7
				c-0.6,0.8-1.4,1.4-2.3,1.9C114.9,213.4,113.9,213.6,112.6,213.6z M112.6,211.5c0.8,0,1.5-0.2,2.1-0.6c0.6-0.4,1.1-0.9,1.5-1.5
				c0.4-0.6,0.7-1.3,0.9-2.1c0.2-0.8,0.3-1.6,0.3-2.4c0-1.3-0.3-2.4-0.7-3.5c-0.5-1-1.1-1.8-1.8-2.2c-0.7-0.4-1.5-0.7-2.3-0.7
				c-0.8,0-1.5,0.2-2.1,0.6c-0.6,0.4-1.1,0.8-1.5,1.4c-0.4,0.6-0.7,1.3-0.9,2c-0.2,0.8-0.3,1.5-0.3,2.3c0,0.8,0.1,1.6,0.3,2.4
				c0.2,0.8,0.5,1.5,0.9,2.1c0.4,0.6,0.9,1.1,1.5,1.5C111.1,211.4,111.8,211.5,112.6,211.5z"/>
			<path class="st0" d="M126.8,213.2l-0.1-16.2l2.4,0l0.2,1.3c0.4-0.3,0.9-0.6,1.4-0.8c0.6-0.3,1.1-0.5,1.7-0.6
				c0.6-0.2,1.2-0.2,1.7-0.2c0.7,0,1.3,0.1,1.9,0.2c0.6,0.2,1.1,0.4,1.5,0.7c0.4,0.3,0.8,0.7,1,1.1c0.6-0.5,1.1-0.8,1.8-1.2
				c0.6-0.3,1.3-0.6,1.9-0.7c0.7-0.1,1.3-0.2,1.8-0.2c1.6,0,2.8,0.3,3.7,1c0.9,0.7,1.4,1.5,1.7,2.6c0.2,1.1,0.4,2.1,0.4,3.2l0,9.8
				l-2.6,0l0-10.1c0-1.1-0.2-1.9-0.5-2.6c-0.3-0.7-0.7-1.1-1.3-1.3c-0.5-0.2-1.2-0.4-1.8-0.4c-0.8,0-1.6,0.2-2.3,0.5
				c-0.8,0.4-1.5,0.8-2.1,1.3c0.1,0.3,0.2,0.7,0.2,1.1c0.1,0.4,0.1,1,0.1,1.7l0,9.8l-2.6,0l0-10.1c0-1-0.1-1.8-0.4-2.5
				c-0.3-0.6-0.6-1.1-1.2-1.4c-0.5-0.3-1.1-0.4-1.8-0.4c-0.7,0-1.4,0.2-2.1,0.5c-0.7,0.3-1.5,0.8-2.2,1.3l0.1,12.6L126.8,213.2z"/>
			<path class="st0" d="M163.1,213.4c-2.1,0-3.6-0.5-4.5-1.5c-1-1-1.4-2.6-1.5-4.7l0-10.2l2.6,0l0,10.4c0,1.4,0.3,2.5,1,3.1
				c0.6,0.6,1.6,1,2.8,1c0.6,0,1.2-0.1,1.8-0.3c0.6-0.2,1.1-0.4,1.6-0.7c0.4-0.3,0.8-0.5,1.1-0.8l-0.1-12.6l2.6,0l0.1,16.2l-2.4,0
				l-0.2-1.3c-0.6,0.4-1.1,0.8-1.6,1c-0.5,0.2-1.1,0.4-1.6,0.5C164.2,213.4,163.7,213.4,163.1,213.4z"/>
			<path class="st0" d="M178.1,213l-0.1-16.2l2.4,0l0.2,1.3c0.6-0.5,1.4-0.9,2.3-1.2c0.9-0.3,1.8-0.5,2.7-0.5c1.6,0,2.9,0.3,3.8,0.9
				c0.9,0.6,1.5,1.4,1.8,2.4c0.3,1,0.4,2.1,0.4,3.2l0,10.1l-2.6,0l0-10.1c0-1-0.2-1.9-0.5-2.6c-0.3-0.7-0.8-1.1-1.4-1.4
				c-0.6-0.3-1.2-0.4-1.9-0.4c-0.6,0-1.2,0.1-1.8,0.3c-0.6,0.2-1.1,0.4-1.6,0.7c-0.5,0.3-0.9,0.5-1.1,0.8l0.1,12.7L178.1,213z"/>
			<path class="st0" d="M200.3,194.1c-0.3,0-0.6-0.1-0.9-0.3c-0.3-0.2-0.5-0.5-0.6-0.8c-0.1-0.3-0.2-0.6-0.2-0.8
				c0-0.4,0.1-0.7,0.2-1c0.2-0.3,0.4-0.5,0.7-0.7c0.3-0.2,0.5-0.2,0.8-0.2c0.4,0,0.7,0.1,1,0.4c0.3,0.2,0.5,0.5,0.6,0.8
				c0.1,0.3,0.2,0.5,0.2,0.8c0,0.4-0.1,0.8-0.3,1.1c-0.2,0.3-0.4,0.5-0.7,0.7C200.8,194,200.5,194.1,200.3,194.1z M199.1,212.9
				l-0.1-16.2l2.6,0l0.1,16.2L199.1,212.9z"/>
			<path class="st0" d="M215.9,213.2c-0.9,0-1.9-0.2-2.8-0.5c-0.9-0.3-1.7-0.8-2.4-1.5c-0.7-0.7-1.2-1.6-1.7-2.6
				c-0.4-1.1-0.6-2.3-0.6-3.7c0-1.5,0.2-2.8,0.6-3.9c0.4-1.1,1-2,1.7-2.7c0.7-0.7,1.4-1.2,2.3-1.5c0.9-0.3,1.7-0.5,2.6-0.5
				c1.2,0,2.2,0.3,3.1,0.8c0.9,0.5,1.5,1.1,1.9,1.7c0.4,0.6,0.7,1.1,0.8,1.4l-1.9,1.2c-0.5-1-1.1-1.8-1.8-2.3
				c-0.7-0.5-1.4-0.7-2.2-0.7c-0.6,0-1.2,0.1-1.7,0.4c-0.6,0.3-1.1,0.7-1.5,1.2c-0.4,0.5-0.8,1.2-1,2c-0.3,0.8-0.4,1.7-0.4,2.7
				c0,1,0.1,1.9,0.4,2.7c0.3,0.8,0.6,1.5,1.1,2c0.5,0.5,1,1,1.6,1.2c0.6,0.3,1.3,0.4,1.9,0.4c0.8,0,1.5-0.2,2.2-0.7
				c0.7-0.5,1.3-1.2,1.8-2.2l1.8,1.2c-0.5,1-1,1.8-1.8,2.4c-0.7,0.6-1.5,1-2.2,1.2C217.1,213.1,216.5,213.2,215.9,213.2z"/>
			<path class="st0" d="M232.6,213.1c-0.7,0-1.4-0.1-2-0.3c-0.7-0.2-1.2-0.5-1.7-1c-0.5-0.4-0.9-0.9-1.2-1.6
				c-0.3-0.6-0.5-1.4-0.5-2.2c0-1.1,0.3-2.1,0.9-2.9c0.6-0.8,1.5-1.4,2.6-1.9c1.1-0.4,2.1-0.7,3.2-0.9c1-0.1,2-0.2,2.9-0.2V202
				c0-1.4-0.3-2.3-0.9-2.9c-0.6-0.6-1.4-0.9-2.4-0.9c-0.7,0-1.4,0.2-2,0.5c-0.6,0.3-1.1,0.8-1.5,1.3l-1.8-1.3c0.5-0.7,1-1.2,1.6-1.6
				c0.6-0.4,1.2-0.6,1.9-0.8c0.7-0.1,1.4-0.2,2-0.2c1.4,0,2.5,0.3,3.4,0.8c0.8,0.5,1.4,1.2,1.8,2.2c0.3,0.9,0.5,2,0.5,3l0,10.5
				l-2.3,0l-0.1-1.4c-0.6,0.6-1.2,1-1.9,1.3C234.2,212.9,233.4,213.1,232.6,213.1z M232.9,211c0.8,0,1.5-0.2,2.1-0.5
				c0.6-0.3,1.2-0.7,1.7-1.2l0-5c-0.9,0-1.7,0.1-2.5,0.2c-0.8,0.1-1.6,0.3-2.3,0.6c-0.7,0.3-1.3,0.7-1.6,1.2
				c-0.3,0.5-0.5,1.1-0.5,1.7c0,0.5,0.1,1,0.3,1.3c0.2,0.4,0.4,0.7,0.8,0.9c0.3,0.2,0.6,0.4,1,0.5C232.2,210.9,232.5,211,232.9,211z
				"/>
			<path class="st0" d="M253.1,213c-1.1,0-2.1-0.2-3-0.6c-0.9-0.4-1.6-1-2.2-1.8c-0.6-0.8-1.1-1.7-1.4-2.7c-0.3-1-0.5-2.2-0.5-3.4
				c0-1,0.2-2.1,0.5-3.1c0.3-1,0.8-1.9,1.4-2.7c0.6-0.8,1.4-1.4,2.4-1.9c1-0.5,2.1-0.7,3.3-0.7c0.8,0,1.5,0.1,2.1,0.2
				c0.6,0.1,1.1,0.3,1.5,0.4l0-6.6l2.6,0l0.1,22.6l-2.3,0l-0.2-1.3c-0.6,0.6-1.2,1.1-1.9,1.3C254.6,212.9,253.9,213,253.1,213z
				 M253.5,210.9c0.7,0,1.3-0.1,2-0.4c0.6-0.3,1.2-0.8,1.7-1.4l0-10.1c-0.1-0.1-0.3-0.2-0.5-0.3c-0.2-0.1-0.5-0.2-0.8-0.2
				c-0.3-0.1-0.6-0.1-0.9-0.2c-0.3,0-0.6-0.1-0.9-0.1c-0.9,0-1.7,0.2-2.4,0.6c-0.7,0.4-1.3,0.8-1.7,1.4c-0.5,0.6-0.8,1.3-1,2.1
				c-0.2,0.8-0.3,1.5-0.3,2.3c0,0.9,0.1,1.8,0.3,2.5c0.2,0.8,0.5,1.5,0.9,2c0.4,0.6,0.9,1,1.5,1.3
				C251.9,210.8,252.6,210.9,253.5,210.9z"/>
			<path class="st0" d="M273.8,212.9c-1.2,0-2.3-0.2-3.2-0.7c-0.9-0.5-1.7-1.1-2.3-1.9c-0.6-0.8-1.1-1.7-1.4-2.7
				c-0.3-1-0.5-2.1-0.5-3.1c0-1.1,0.1-2.1,0.4-3.1c0.3-1,0.8-1.9,1.4-2.7c0.6-0.8,1.4-1.4,2.3-1.9c0.9-0.5,2-0.7,3.2-0.7
				c1.7,0,3.2,0.5,4.4,1.5c1.2,1,2,2.1,2.4,3.4c0.4,1.3,0.6,2.5,0.6,3.5c0,1.1-0.1,2.1-0.4,3.1c-0.3,1-0.8,1.9-1.4,2.7
				c-0.6,0.8-1.4,1.4-2.3,1.9C276.1,212.7,275,212.9,273.8,212.9z M273.8,210.8c0.8,0,1.5-0.2,2.1-0.6c0.6-0.4,1.1-0.9,1.5-1.5
				c0.4-0.6,0.7-1.3,0.9-2.1c0.2-0.8,0.3-1.6,0.3-2.4c0-1.3-0.2-2.5-0.7-3.5c-0.5-1-1.1-1.8-1.8-2.2c-0.7-0.4-1.5-0.7-2.3-0.7
				c-0.8,0-1.5,0.2-2.1,0.6c-0.6,0.4-1.1,0.8-1.5,1.4c-0.4,0.6-0.7,1.3-0.9,2c-0.2,0.8-0.3,1.5-0.3,2.3c0,0.8,0.1,1.6,0.3,2.4
				c0.2,0.8,0.5,1.5,0.9,2.1c0.4,0.6,0.9,1.1,1.5,1.5C272.2,210.6,273,210.8,273.8,210.8z"/>
			<path class="st0" d="M287.9,212.5l-0.1-16.1l2.3,0l0.2,1.4c0.3-0.3,0.7-0.7,1.1-1c0.5-0.3,0.9-0.5,1.3-0.7
				c0.4-0.1,0.8-0.2,1.2-0.2c0.5,0,0.9,0,1.4,0.1c0.4,0.1,0.7,0.1,0.9,0.2l-0.5,2.4c-0.3-0.1-0.6-0.2-0.9-0.3
				c-0.3-0.1-0.7-0.1-1.2-0.1c-0.6,0-1.1,0.2-1.7,0.5c-0.6,0.3-1.1,0.7-1.6,1.2l0.1,12.6L287.9,212.5z"/>
			<path class="st0" d="M308.3,212.8c-1.2,0-2.2-0.2-3.2-0.5c-1-0.4-1.8-0.9-2.5-1.6c-0.7-0.7-1.2-1.6-1.6-2.7
				c-0.4-1.1-0.6-2.3-0.6-3.7c0-1.3,0.2-2.4,0.5-3.5c0.3-1,0.8-1.9,1.4-2.6c0.6-0.7,1.3-1.3,2.2-1.7c0.9-0.4,1.8-0.6,2.9-0.6
				c1.7,0,3.1,0.4,4.2,1.3c1.1,0.9,1.8,1.9,2.2,3.2c0.4,1.3,0.6,2.6,0.6,3.8l-11.5,0.1c0,1,0.1,1.9,0.4,2.7c0.2,0.8,0.6,1.5,1,2
				c0.5,0.6,1,1,1.7,1.3c0.7,0.3,1.4,0.5,2.3,0.4c0.7,0,1.3-0.2,1.9-0.5c0.6-0.3,1.1-0.6,1.4-1c0.3-0.4,0.6-0.8,0.8-1.1l1.7,1.2
				c-0.5,0.8-1,1.5-1.6,2.1c-0.6,0.6-1.3,0.9-2,1.2C309.8,212.7,309.1,212.8,308.3,212.8z M303.2,202.1l8.4,0
				c-0.1-1-0.3-1.8-0.8-2.5c-0.5-0.7-1-1.1-1.6-1.4c-0.6-0.2-1.2-0.4-1.7-0.3c-0.8,0-1.5,0.2-2.2,0.6c-0.6,0.4-1.1,0.9-1.4,1.5
				C303.6,200.6,303.4,201.3,303.2,202.1z"/>
			<path class="st0" d="M325.8,212.7c-1.1,0-2.1-0.2-2.9-0.5c-0.8-0.3-1.4-0.7-1.9-1.2c-0.4-0.5-0.8-0.9-1-1.4l2-1.3
				c0.2,0.4,0.4,0.7,0.6,1c0.2,0.3,0.5,0.5,0.8,0.7c0.3,0.2,0.7,0.3,1,0.4c0.4,0.1,0.8,0.2,1.3,0.2c1.1,0,1.9-0.2,2.5-0.6
				c0.5-0.4,0.8-1,0.8-1.8c0-0.8-0.3-1.5-0.9-2c-0.6-0.5-1.6-1-3.2-1.6c-1.2-0.4-2.1-0.9-2.8-1.4c-0.7-0.5-1.1-1-1.3-1.6
				c-0.2-0.6-0.3-1.1-0.3-1.7c0-1,0.3-1.8,0.8-2.4c0.5-0.7,1.2-1.1,2-1.4c0.8-0.3,1.6-0.4,2.3-0.4c1.3,0,2.4,0.2,3.2,0.6
				c0.9,0.4,1.6,1.1,2.2,1.9l-1.8,1.5c-0.4-0.5-1-1-1.6-1.3c-0.6-0.4-1.3-0.5-2-0.5c-0.9,0-1.6,0.2-2.1,0.6
				c-0.5,0.4-0.7,0.8-0.7,1.4c0,0.3,0.1,0.6,0.2,0.9c0.1,0.3,0.3,0.5,0.6,0.7c0.3,0.2,0.7,0.4,1.2,0.6c0.5,0.2,1.1,0.5,1.9,0.7
				c0.7,0.3,1.4,0.6,1.9,0.9c0.6,0.3,1,0.7,1.4,1.1c0.4,0.4,0.7,0.9,0.9,1.4c0.2,0.5,0.3,1.1,0.3,1.8c0,0.8-0.1,1.5-0.4,2.1
				c-0.3,0.6-0.7,1.1-1.2,1.5c-0.5,0.4-1.1,0.7-1.8,0.9C327.4,212.6,326.6,212.7,325.8,212.7z"/>
			<path class="st0" d="M353,212.6c-0.7,0-1.4-0.1-2-0.3c-0.6-0.2-1.2-0.5-1.7-1c-0.5-0.4-0.9-0.9-1.2-1.6c-0.3-0.6-0.5-1.4-0.5-2.2
				c0-1.1,0.3-2.1,0.9-2.9c0.6-0.8,1.5-1.4,2.6-1.9c1.1-0.4,2.1-0.7,3.2-0.9c1-0.1,2-0.2,2.9-0.2l0-0.2c0-1.4-0.3-2.3-0.9-2.9
				c-0.6-0.6-1.4-0.9-2.4-0.9c-0.7,0-1.4,0.2-2,0.5c-0.6,0.3-1.1,0.8-1.5,1.3l-1.8-1.3c0.5-0.7,1-1.2,1.6-1.6
				c0.6-0.4,1.2-0.6,1.9-0.8c0.7-0.1,1.4-0.2,2-0.2c1.4,0,2.5,0.3,3.4,0.8c0.9,0.5,1.4,1.2,1.8,2.2c0.3,0.9,0.5,2,0.5,3l0,10.5
				l-2.3,0l-0.1-1.4c-0.5,0.6-1.2,1-1.9,1.3C354.7,212.4,353.9,212.6,353,212.6z M353.3,210.4c0.8,0,1.5-0.2,2.1-0.5
				c0.7-0.3,1.2-0.7,1.7-1.2l0-5c-0.9,0-1.7,0.1-2.5,0.2c-0.8,0.1-1.6,0.3-2.3,0.6c-0.7,0.3-1.3,0.7-1.6,1.2
				c-0.3,0.5-0.5,1.1-0.5,1.7c0,0.5,0.1,1,0.3,1.3c0.2,0.4,0.4,0.7,0.7,0.9c0.3,0.2,0.6,0.4,1,0.5
				C352.6,210.4,352.9,210.4,353.3,210.4z"/>
			<path class="st0" d="M367.2,212.1l-0.1-22.6l2.6,0l0.1,22.6L367.2,212.1z"/>
			<path class="st0" d="M394.5,212.5c-1.2,0-2.3-0.2-3.4-0.6c-1.1-0.4-2-0.8-2.7-1.4c-0.7-0.6-1.2-1.1-1.6-1.7l2.1-1.6
				c0.3,0.5,0.7,0.9,1.1,1.2c0.4,0.4,0.9,0.6,1.4,0.9c0.5,0.2,1,0.4,1.6,0.5c0.5,0.1,1.1,0.2,1.6,0.2c0.9,0,1.7-0.2,2.4-0.5
				c0.7-0.3,1.2-0.8,1.5-1.4c0.3-0.6,0.4-1.3,0.4-1.9c0-0.9-0.3-1.6-0.8-2.2c-0.5-0.6-1.2-1.1-2.1-1.6c-0.9-0.4-1.8-0.9-2.7-1.2
				c-0.7-0.3-1.4-0.6-2.1-0.9c-0.7-0.3-1.3-0.8-1.9-1.3c-0.6-0.5-1-1.1-1.4-1.7c-0.4-0.7-0.5-1.5-0.5-2.4c0-1.4,0.4-2.5,1.2-3.5
				c0.8-0.9,1.7-1.6,2.8-1.9c1.1-0.3,2.1-0.5,3-0.5c0.7,0,1.4,0.1,2.1,0.2c0.7,0.1,1.3,0.3,1.9,0.6c0.6,0.3,1.2,0.7,1.7,1.1
				c0.5,0.4,1,1,1.4,1.6l-2,1.6c-0.4-0.6-1-1.1-1.6-1.6c-0.6-0.4-1.3-0.7-1.9-0.9c-0.6-0.2-1.1-0.2-1.6-0.2c-0.8,0-1.5,0.2-2.2,0.5
				c-0.7,0.4-1.2,0.8-1.5,1.3c-0.3,0.5-0.5,1-0.5,1.5c0,0.5,0.1,0.9,0.3,1.3c0.2,0.4,0.4,0.7,0.7,0.9c0.3,0.3,0.6,0.5,0.9,0.7
				c0.4,0.2,0.7,0.4,1.1,0.6c0.7,0.3,1.2,0.5,1.7,0.7c1.9,0.8,3.3,1.5,4.3,2.2c1,0.7,1.6,1.5,2,2.3c0.3,0.8,0.5,1.7,0.5,2.7
				c0,1.1-0.2,2.1-0.6,2.9c-0.4,0.8-0.9,1.5-1.6,2c-0.7,0.5-1.4,0.9-2.3,1.2C396.4,212.3,395.5,212.5,394.5,212.5z"/>
			<path class="st0" d="M415.2,212.3c-1.2,0-2.2-0.2-3.2-0.5c-1-0.4-1.8-0.9-2.5-1.6c-0.7-0.7-1.2-1.6-1.6-2.7
				c-0.4-1.1-0.6-2.3-0.6-3.7c0-1.3,0.2-2.4,0.5-3.5c0.3-1,0.8-1.9,1.4-2.6c0.6-0.7,1.3-1.3,2.2-1.7c0.9-0.4,1.8-0.6,2.9-0.6
				c1.7,0,3.1,0.4,4.2,1.3c1.1,0.9,1.8,1.9,2.2,3.2c0.4,1.3,0.6,2.6,0.6,3.8l-11.5,0.1c0,1,0.1,1.9,0.4,2.7c0.2,0.8,0.6,1.5,1,2
				c0.5,0.6,1,1,1.7,1.3c0.7,0.3,1.4,0.5,2.3,0.4c0.7,0,1.3-0.2,1.9-0.5c0.6-0.3,1.1-0.6,1.4-1c0.3-0.4,0.6-0.7,0.8-1.1l1.7,1.2
				c-0.5,0.8-1,1.5-1.6,2.1c-0.6,0.6-1.3,0.9-2,1.2C416.8,212.2,416,212.3,415.2,212.3z M410.2,201.6l8.4,0c-0.1-1-0.3-1.8-0.8-2.5
				c-0.5-0.7-1-1.1-1.6-1.4c-0.6-0.2-1.2-0.4-1.7-0.3c-0.8,0-1.5,0.2-2.2,0.6c-0.6,0.4-1.1,0.9-1.4,1.5
				C410.6,200.2,410.3,200.9,410.2,201.6z"/>
			<path class="st0" d="M428.1,211.8l-0.1-16.1l2.3,0l0.2,1.4c0.3-0.3,0.7-0.7,1.1-1c0.5-0.3,0.9-0.5,1.3-0.7
				c0.4-0.1,0.8-0.2,1.1-0.2c0.5,0,0.9,0,1.4,0.1c0.4,0.1,0.7,0.1,0.9,0.2l-0.5,2.4c-0.3-0.1-0.6-0.2-0.9-0.3
				c-0.3-0.1-0.7-0.1-1.2-0.1c-0.6,0-1.1,0.2-1.7,0.5c-0.6,0.3-1.1,0.7-1.6,1.2l0.1,12.6L428.1,211.8z"/>
			<path class="st0" d="M445.7,211.8l-6-16.1l2.8,0l4.8,13.2l4.7-13.2l2.6,0l-5.9,16.2L445.7,211.8z"/>
			<path class="st0" d="M461,192.9c-0.3,0-0.6-0.1-0.9-0.3c-0.3-0.2-0.5-0.5-0.6-0.8c-0.1-0.3-0.2-0.6-0.2-0.8c0-0.4,0.1-0.7,0.2-1
				c0.2-0.3,0.4-0.5,0.7-0.7c0.3-0.2,0.5-0.2,0.8-0.2c0.4,0,0.7,0.1,1,0.4c0.3,0.2,0.5,0.5,0.6,0.8c0.1,0.3,0.2,0.5,0.2,0.8
				c0,0.4-0.1,0.8-0.3,1.1c-0.2,0.3-0.4,0.5-0.7,0.7C461.5,192.9,461.2,192.9,461,192.9z M459.8,211.7l-0.1-16.2l2.6,0l0.1,16.2
				L459.8,211.7z"/>
			<path class="st0" d="M476.6,212c-0.9,0-1.9-0.2-2.8-0.5c-0.9-0.3-1.7-0.8-2.4-1.5c-0.7-0.7-1.2-1.6-1.7-2.6
				c-0.4-1.1-0.6-2.3-0.6-3.7c0-1.5,0.2-2.8,0.6-3.9c0.4-1.1,1-2,1.7-2.7c0.7-0.7,1.4-1.2,2.3-1.5c0.9-0.3,1.7-0.5,2.6-0.5
				c1.2,0,2.2,0.3,3.1,0.8c0.9,0.5,1.5,1.1,1.9,1.7c0.4,0.6,0.7,1.1,0.8,1.4l-1.9,1.2c-0.5-1-1.1-1.8-1.8-2.3
				c-0.7-0.5-1.4-0.7-2.2-0.7c-0.6,0-1.2,0.1-1.7,0.4c-0.6,0.3-1.1,0.7-1.5,1.2c-0.4,0.5-0.8,1.2-1,2c-0.3,0.8-0.4,1.7-0.4,2.7
				c0,1,0.1,1.9,0.4,2.7c0.3,0.8,0.6,1.5,1.1,2c0.5,0.5,1,1,1.6,1.2c0.6,0.3,1.2,0.4,1.9,0.4c0.8,0,1.5-0.2,2.2-0.7
				c0.7-0.5,1.3-1.2,1.8-2.2l1.8,1.2c-0.4,1-1,1.8-1.8,2.4c-0.7,0.6-1.5,1-2.2,1.2C477.8,211.9,477.2,212,476.6,212z"/>
			<path class="st0" d="M489.9,192.8c-0.3,0-0.6-0.1-0.9-0.3c-0.3-0.2-0.5-0.5-0.6-0.8c-0.1-0.3-0.2-0.6-0.2-0.8
				c0-0.4,0.1-0.7,0.2-1c0.2-0.3,0.4-0.5,0.7-0.7c0.3-0.2,0.5-0.2,0.8-0.2c0.4,0,0.7,0.1,1,0.4c0.3,0.2,0.5,0.5,0.6,0.8
				c0.1,0.3,0.2,0.5,0.2,0.8c0,0.4-0.1,0.8-0.3,1.1c-0.2,0.3-0.4,0.5-0.7,0.7C490.4,192.7,490.1,192.8,489.9,192.8z M488.7,211.6
				l-0.1-16.2l2.6,0l0.1,16.2L488.7,211.6z"/>
			<path class="st0" d="M505.5,211.9c-1.2,0-2.3-0.2-3.2-0.7c-0.9-0.5-1.7-1.1-2.3-1.9c-0.6-0.8-1.1-1.7-1.4-2.7
				c-0.3-1-0.5-2.1-0.5-3.1c0-1.1,0.1-2.1,0.4-3.1c0.3-1,0.8-1.9,1.4-2.7c0.6-0.8,1.4-1.4,2.3-1.9c0.9-0.5,2-0.7,3.2-0.7
				c1.7,0,3.2,0.5,4.4,1.5c1.2,1,2,2.1,2.4,3.4c0.4,1.3,0.6,2.5,0.6,3.5c0,1.1-0.1,2.1-0.5,3.1c-0.3,1-0.8,1.9-1.4,2.7
				c-0.6,0.8-1.4,1.4-2.3,1.9C507.8,211.6,506.7,211.9,505.5,211.9z M505.4,209.8c0.8,0,1.5-0.2,2.1-0.6c0.6-0.4,1.1-0.9,1.5-1.5
				c0.4-0.6,0.7-1.3,0.9-2.1c0.2-0.8,0.3-1.6,0.3-2.4c0-1.3-0.3-2.4-0.7-3.5c-0.5-1-1.1-1.8-1.8-2.2c-0.7-0.4-1.5-0.7-2.3-0.7
				c-0.8,0-1.5,0.2-2.1,0.6c-0.6,0.4-1.1,0.8-1.5,1.4c-0.4,0.6-0.7,1.3-0.9,2c-0.2,0.8-0.3,1.5-0.3,2.3c0,0.8,0.1,1.6,0.3,2.4
				c0.2,0.8,0.5,1.5,0.9,2.1c0.4,0.6,0.9,1.1,1.5,1.5C503.9,209.6,504.6,209.8,505.4,209.8z"/>
			<path class="st0" d="M536.7,211.7c-1.1,0-2.1-0.2-3-0.6c-0.9-0.4-1.6-1-2.2-1.8c-0.6-0.8-1.1-1.7-1.4-2.7c-0.3-1-0.5-2.2-0.5-3.4
				c0-1,0.2-2.1,0.5-3.1c0.3-1,0.8-1.9,1.4-2.7c0.6-0.8,1.4-1.4,2.4-1.9c1-0.5,2.1-0.7,3.3-0.7c0.8,0,1.5,0.1,2.1,0.2
				c0.6,0.1,1.1,0.3,1.5,0.4l0-6.6l2.6,0l0.1,22.6l-2.4,0l-0.2-1.3c-0.6,0.6-1.2,1.1-1.9,1.3C538.2,211.6,537.5,211.7,536.7,211.7z
				 M537.1,209.6c0.7,0,1.3-0.1,2-0.4c0.6-0.3,1.2-0.8,1.7-1.4l0-10.1c-0.1-0.1-0.3-0.2-0.5-0.3c-0.2-0.1-0.5-0.2-0.8-0.2
				c-0.3-0.1-0.6-0.1-0.9-0.2c-0.3-0.1-0.6-0.1-0.9-0.1c-0.9,0-1.7,0.2-2.4,0.6c-0.7,0.4-1.3,0.8-1.7,1.4c-0.4,0.6-0.8,1.3-1,2.1
				c-0.2,0.8-0.3,1.5-0.3,2.3c0,0.9,0.1,1.8,0.3,2.5c0.2,0.8,0.5,1.5,0.9,2c0.4,0.6,0.9,1,1.5,1.3
				C535.5,209.5,536.3,209.6,537.1,209.6z"/>
			<path class="st0" d="M557.8,211.6c-1.2,0-2.2-0.2-3.2-0.5c-1-0.4-1.8-0.9-2.5-1.6c-0.7-0.7-1.2-1.6-1.6-2.7
				c-0.4-1.1-0.6-2.3-0.6-3.7c0-1.3,0.2-2.4,0.5-3.5c0.3-1,0.8-1.9,1.4-2.6c0.6-0.7,1.4-1.3,2.2-1.7c0.9-0.4,1.8-0.6,2.9-0.6
				c1.7,0,3.1,0.4,4.2,1.3c1.1,0.9,1.8,1.9,2.2,3.2c0.4,1.3,0.6,2.6,0.6,3.8l-11.5,0.1c0,1,0.1,1.9,0.4,2.7c0.2,0.8,0.6,1.5,1,2
				c0.5,0.6,1,1,1.7,1.3c0.7,0.3,1.4,0.5,2.3,0.4c0.7,0,1.3-0.2,1.9-0.5c0.6-0.3,1.1-0.6,1.4-1c0.3-0.4,0.6-0.7,0.8-1.1l1.7,1.2
				c-0.5,0.8-1,1.5-1.6,2.1c-0.6,0.6-1.3,0.9-2,1.2C559.3,211.5,558.6,211.6,557.8,211.6z M552.8,201l8.4,0c-0.1-1-0.3-1.8-0.8-2.5
				c-0.5-0.7-1-1.1-1.6-1.4c-0.6-0.2-1.2-0.4-1.7-0.3c-0.8,0-1.5,0.2-2.2,0.6c-0.6,0.4-1.1,0.9-1.4,1.5
				C553.1,199.5,552.9,200.2,552.8,201z"/>
			<path class="st0" d="M586.2,211.5c-1.2,0-2.1-0.3-2.7-0.9c-0.6-0.6-1-1.6-1-2.9l0-10.6l-2.7,0l0-2.1l2.7,0l0-4.4l2.6,0l0,4.4
				l4.2,0l0,2.1l-4.2,0l0,10.3c0,0.6,0.1,1,0.3,1.3c0.2,0.3,0.4,0.5,0.6,0.6c0.2,0.1,0.5,0.1,0.7,0.1c0.4,0,0.8-0.1,1.2-0.3
				c0.4-0.2,0.7-0.4,1-0.6l1,1.8c-0.4,0.4-0.8,0.6-1.2,0.8c-0.3,0.2-0.7,0.3-1.1,0.4C587.1,211.5,586.7,211.5,586.2,211.5z"/>
			<path class="st0" d="M601.2,211.5c-2.1,0-3.6-0.5-4.5-1.5c-1-1-1.4-2.6-1.5-4.7l0-10.2l2.6,0l0,10.4c0,1.4,0.3,2.5,1,3.1
				c0.7,0.6,1.6,1,2.8,1c0.6,0,1.2-0.1,1.8-0.3c0.6-0.2,1.1-0.4,1.6-0.7c0.4-0.3,0.8-0.5,1.1-0.8l-0.1-12.6l2.6,0l0.1,16.2l-2.4,0
				l-0.2-1.3c-0.5,0.4-1.1,0.8-1.6,1c-0.5,0.2-1.1,0.4-1.6,0.5C602.3,211.4,601.7,211.5,601.2,211.5z"/>
			<path class="st0" d="M637,211.3l-7.1-17.6l0.1,17.2l-2.6,0l-0.1-22.6l3.1,0l6.8,17.4l6.3-17.5l3.1,0l0.1,22.6l-2.6,0l-0.1-17.3
				l-6.5,17.7L637,211.3z"/>
			<path class="st0" d="M659,211.2c-0.7,0-1.4-0.1-2-0.3c-0.7-0.2-1.2-0.5-1.7-1c-0.5-0.4-0.9-0.9-1.2-1.6c-0.3-0.6-0.5-1.4-0.5-2.2
				c0-1.1,0.3-2.1,0.9-2.9c0.6-0.8,1.5-1.4,2.6-1.9c1.1-0.4,2.1-0.7,3.2-0.9c1-0.1,2-0.2,2.9-0.2v-0.2c0-1.4-0.3-2.3-0.9-2.9
				c-0.6-0.6-1.4-0.9-2.4-0.9c-0.7,0-1.4,0.2-2,0.5c-0.6,0.3-1.1,0.8-1.5,1.3l-1.8-1.3c0.5-0.7,1-1.2,1.6-1.6
				c0.6-0.4,1.2-0.6,1.9-0.8c0.7-0.1,1.4-0.2,2-0.2c1.4,0,2.5,0.3,3.3,0.8c0.9,0.5,1.4,1.2,1.8,2.2c0.3,0.9,0.5,2,0.5,3l0,10.5
				l-2.3,0l-0.1-1.4c-0.6,0.6-1.2,1-1.9,1.3C660.7,211,659.9,211.2,659,211.2z M659.3,209.1c0.8,0,1.5-0.2,2.1-0.5
				c0.7-0.3,1.2-0.7,1.7-1.2l0-5c-0.9,0-1.7,0.1-2.5,0.2c-0.8,0.1-1.6,0.3-2.3,0.6c-0.7,0.3-1.3,0.7-1.6,1.2
				c-0.3,0.5-0.5,1.1-0.5,1.7c0,0.5,0.1,1,0.3,1.3c0.2,0.4,0.4,0.7,0.8,0.9c0.3,0.2,0.6,0.4,1,0.5C658.6,209,659,209.1,659.3,209.1z
				"/>
			<path class="st0" d="M673.2,210.7l-0.1-16.1l2.3,0l0.2,1.4c0.3-0.3,0.7-0.7,1.1-1c0.5-0.3,0.9-0.5,1.3-0.7
				c0.4-0.1,0.8-0.2,1.1-0.2c0.5,0,0.9,0,1.4,0.1c0.4,0.1,0.7,0.1,0.9,0.2l-0.5,2.4c-0.3-0.1-0.6-0.2-0.9-0.3
				c-0.3-0.1-0.7-0.1-1.2-0.1c-0.6,0-1.1,0.2-1.7,0.5c-0.6,0.3-1.1,0.7-1.6,1.2l0.1,12.6L673.2,210.7z"/>
			<path class="st0" d="M693.2,211c-0.9,0-1.9-0.2-2.8-0.5c-0.9-0.3-1.7-0.8-2.4-1.5c-0.7-0.7-1.2-1.6-1.7-2.6
				c-0.4-1.1-0.6-2.3-0.6-3.7c0-1.5,0.2-2.8,0.6-3.9c0.4-1.1,1-2,1.6-2.7c0.7-0.7,1.4-1.2,2.3-1.5c0.9-0.3,1.7-0.5,2.6-0.5
				c1.2,0,2.2,0.3,3.1,0.8c0.9,0.5,1.5,1.1,1.9,1.7c0.4,0.6,0.7,1.1,0.8,1.4l-1.9,1.2c-0.5-1-1.1-1.8-1.8-2.3
				c-0.7-0.5-1.4-0.7-2.2-0.7c-0.6,0-1.2,0.1-1.7,0.4c-0.6,0.3-1.1,0.7-1.5,1.2c-0.4,0.5-0.8,1.2-1,2c-0.3,0.8-0.4,1.7-0.4,2.7
				c0,1,0.1,1.9,0.4,2.7c0.3,0.8,0.6,1.5,1.1,2c0.5,0.5,1,1,1.6,1.2c0.6,0.3,1.2,0.4,1.9,0.4c0.8,0,1.5-0.2,2.2-0.7
				c0.7-0.5,1.3-1.2,1.8-2.2l1.8,1.2c-0.4,1-1,1.8-1.8,2.4c-0.7,0.6-1.5,1-2.2,1.2C694.5,210.9,693.8,211,693.2,211z"/>
			<path class="st0" d="M709.9,211c-0.7,0-1.4-0.1-2-0.3c-0.7-0.2-1.2-0.5-1.7-1c-0.5-0.4-0.9-0.9-1.2-1.6c-0.3-0.6-0.5-1.4-0.5-2.2
				c0-1.1,0.3-2.1,0.9-2.9c0.6-0.8,1.5-1.4,2.6-1.9c1.1-0.4,2.1-0.7,3.2-0.9c1-0.1,2-0.2,2.9-0.2v-0.2c0-1.4-0.3-2.3-0.9-2.9
				c-0.6-0.6-1.4-0.9-2.4-0.9c-0.7,0-1.4,0.2-2,0.5c-0.6,0.3-1.1,0.8-1.5,1.3l-1.8-1.3c0.5-0.7,1-1.2,1.6-1.6
				c0.6-0.4,1.2-0.6,1.9-0.8c0.7-0.1,1.4-0.2,2-0.2c1.4,0,2.5,0.2,3.3,0.8c0.9,0.5,1.4,1.2,1.8,2.2c0.3,0.9,0.5,2,0.5,3l0,10.5
				l-2.3,0l-0.1-1.4c-0.6,0.6-1.2,1-1.9,1.3C711.6,210.8,710.8,211,709.9,211z M710.2,208.8c0.8,0,1.5-0.2,2.1-0.5
				c0.6-0.3,1.2-0.7,1.7-1.2l0-5c-0.9,0-1.7,0.1-2.5,0.2c-0.8,0.1-1.6,0.3-2.3,0.6c-0.7,0.3-1.3,0.7-1.6,1.2
				c-0.3,0.5-0.5,1.1-0.5,1.7c0,0.5,0.1,1,0.3,1.3c0.2,0.4,0.4,0.7,0.7,0.9c0.3,0.2,0.6,0.4,1,0.5
				C709.5,208.8,709.8,208.8,710.2,208.8z"/>
		</g>
		<g id="XMLID_195_">
			<path id="XMLID_196_" class="st0" d="M54.6,222.3c-1,0-1.8-0.8-1.8-1.8l-0.2-36.5c0-0.5,0.2-1,0.5-1.3c0.3-0.3,0.8-0.5,1.3-0.5
				l13.4-0.1h0c1,0,1.8,0.8,1.8,1.8c0,1-0.8,1.8-1.8,1.8l-11.6,0.1l0.1,32.9l11.6-0.1h0c1,0,1.8,0.8,1.8,1.8c0,1-0.8,1.8-1.8,1.8
				L54.6,222.3C54.6,222.3,54.6,222.3,54.6,222.3z"/>
			<path id="XMLID_197_" class="st0" d="M732.2,219.3c-1,0-1.8-0.8-1.8-1.8c0-1,0.8-1.8,1.8-1.8l11.6-0.1l-0.1-32.9l-11.5,0.1h0
				c-1,0-1.8-0.8-1.8-1.8c0-1,0.8-1.8,1.8-1.8l13.4-0.1h0c1,0,1.8,0.8,1.8,1.8l0.2,36.5c0,0.5-0.2,1-0.5,1.3s-0.8,0.5-1.3,0.5
				L732.2,219.3L732.2,219.3z"/>
		</g>
	</g>
	<g id="XMLID_198_">
		<g id="XMLID_199_">
			<path id="XMLID_200_" class="st0" d="M285.9,151.4c-0.8,0-1.3-0.2-1.5-0.5c-0.2-0.3-0.4-0.9-0.6-1.7l-1.1-4.4h-0.2
				c-1.4,2.6-3.4,4.6-6,5.9c-2.6,1.3-5.7,2-9.3,2c-2.7,0-5.2-0.4-7.6-1.2c-2.4-0.8-4.5-2-6.4-3.6c-1.8-1.6-3.3-3.7-4.3-6.1
				c-1.1-2.5-1.6-5.3-1.6-8.7c0-3.5,0.6-6.3,1.7-8.6c1.2-2.3,2.8-4.1,4.8-5.4c2-1.3,4.4-2.3,7-2.8c2.7-0.5,5.5-0.8,8.6-0.8h10.9
				c-0.1-1.2-0.4-2.5-0.8-3.9c-0.4-1.4-1-2.8-1.9-4.1c-0.8-1.3-2-2.4-3.4-3.3c-1.4-0.9-3.3-1.4-5.5-1.4c-1.7,0-3.5,0.3-5.5,0.8
				c-1.9,0.5-4.1,1.2-6.5,1.9c-1,0.4-1.7,0.5-2,0.3c-0.4-0.1-0.6-0.3-0.7-0.5l-2.2-3.5c-0.6-1-0.6-1.9,0.1-2.8
				c0.5-0.6,1.3-1.2,2.5-1.8c1.2-0.6,2.6-1.2,4.2-1.7c1.6-0.5,3.4-0.9,5.4-1.2c2-0.3,4-0.5,6.1-0.5c4.6,0,8.4,0.8,11.3,2.3
				c3,1.6,5.3,3.7,7,6.3c1.7,2.7,2.9,5.7,3.6,9.2c0.7,3.5,1,7.1,1,11v26.6c0,1.4-0.7,2.2-2.1,2.2H285.9z M280.6,124.6h-11.2
				c-2.8,0-5.1,0.7-6.8,2.2c-1.7,1.4-2.6,3.5-2.6,6.1c0,1.1,0.2,2.3,0.5,3.5c0.4,1.3,0.9,2.4,1.7,3.5c0.8,1.1,1.8,2,3.1,2.7
				c1.3,0.7,2.9,1.1,4.8,1.1c3.3,0,5.8-1.3,7.7-3.8c1.8-2.5,2.8-6.6,2.8-12.1V124.6z"/>
			<path id="XMLID_203_" class="st0" d="M321.8,151.4c-4.8,0-8.4-1.4-10.9-4.2c-2.5-2.8-3.7-7-3.7-12.7v-30.8h-5.5
				c-1.4,0-2.1-0.7-2.1-2.2v-4.2c0-1.4,0.7-2.2,2.1-2.2h5.5v-8.3c0-0.8,0.2-1.3,0.5-1.5c0.4-0.2,0.9-0.4,1.6-0.7l8.5-3.2
				c0.7-0.3,1.2-0.2,1.6,0.3c0.4,0.5,0.5,1.1,0.5,1.9v11.6h6.7c1.4,0,2.1,0.7,2.1,2.2v4.2c0,1.4-0.7,2.2-2.1,2.2h-6.7v31.2
				c0,2.7,0.5,4.6,1.6,5.7c1.1,1.2,2.2,1.7,3.4,1.7h0.7c1.4,0,2.1,0.7,2.1,2.2v4.8c0,1.4-0.7,2.2-2.1,2.2H321.8z"/>
			<path id="XMLID_205_" class="st0" d="M374,151.4c-0.8,0-1.3-0.2-1.5-0.5c-0.2-0.3-0.4-0.9-0.6-1.7l-1.1-4.4h-0.2
				c-1.4,2.6-3.4,4.6-6,5.9c-2.6,1.3-5.7,2-9.3,2c-2.7,0-5.2-0.4-7.6-1.2c-2.4-0.8-4.5-2-6.4-3.6c-1.8-1.6-3.3-3.7-4.3-6.1
				c-1.1-2.5-1.6-5.3-1.6-8.7c0-3.5,0.6-6.3,1.7-8.6c1.2-2.3,2.8-4.1,4.8-5.4c2-1.3,4.4-2.3,7-2.8c2.7-0.5,5.5-0.8,8.6-0.8h10.9
				c-0.1-1.2-0.4-2.5-0.8-3.9c-0.4-1.4-1-2.8-1.9-4.1c-0.8-1.3-2-2.4-3.4-3.3c-1.4-0.9-3.3-1.4-5.5-1.4c-1.7,0-3.5,0.3-5.5,0.8
				c-1.9,0.5-4.1,1.2-6.5,1.9c-1,0.4-1.7,0.5-2,0.3c-0.4-0.1-0.6-0.3-0.7-0.5l-2.2-3.5c-0.6-1-0.6-1.9,0.1-2.8
				c0.5-0.6,1.3-1.2,2.5-1.8c1.2-0.6,2.6-1.2,4.2-1.7c1.6-0.5,3.4-0.9,5.4-1.2c2-0.3,4-0.5,6.1-0.5c4.6,0,8.4,0.8,11.3,2.3
				c3,1.6,5.3,3.7,7,6.3c1.7,2.7,2.9,5.7,3.6,9.2c0.7,3.5,1,7.1,1,11v26.6c0,1.4-0.7,2.2-2.1,2.2H374z M368.7,124.6h-11.2
				c-2.8,0-5.1,0.7-6.8,2.2c-1.7,1.4-2.6,3.5-2.6,6.1c0,1.1,0.2,2.3,0.5,3.5c0.4,1.3,0.9,2.4,1.7,3.5c0.8,1.1,1.8,2,3.1,2.7
				c1.3,0.7,2.9,1.1,4.8,1.1c3.3,0,5.8-1.3,7.7-3.8c1.8-2.5,2.8-6.6,2.8-12.1V124.6z"/>
			<path id="XMLID_208_" class="st1" d="M403,152.5c-0.5,0-0.8-0.1-1-0.3c-0.2-0.2-0.2-0.6,0.1-1l7.1-16.3l-14.3-38.3
				c-0.5-0.9-0.1-1.4,0.9-1.4h9.3c1,0,1.7,0.5,2,1.5l9.2,29.6l9.3-29.6c0.4-1,1-1.5,2-1.5h8.8c0.5,0,0.8,0.1,1,0.3
				c0.2,0.2,0.2,0.6-0.1,1l-20.8,54.5c-0.5,0.9-1.2,1.4-2.1,1.4H403z"/>
			<path id="XMLID_210_" class="st0" d="M491.7,151.4c-0.8,0-1.3-0.2-1.5-0.5c-0.2-0.3-0.4-0.9-0.6-1.7l-1.1-4.5h-0.2
				c-2.2,2.8-4.9,4.9-8,6.2c-3.1,1.3-6.7,1.9-10.8,1.9c-3,0-5.9-0.5-8.6-1.5c-2.7-1-5.1-2.6-7.2-4.9c-2.1-2.3-3.7-5.3-4.9-9
				c-1.2-3.7-1.8-8.4-1.8-14c0-5.6,0.6-10.3,1.9-14.1c1.2-3.8,2.9-6.8,4.9-9.1c2-2.3,4.5-3.9,7.2-4.9c2.8-1,5.7-1.5,8.8-1.5
				c4.5,0,8,0.8,10.5,2.4c2.5,1.6,4.4,3.4,5.8,5.5h0.2V73.5c0-1.4,0.7-2.2,2.1-2.2h8.5c1.4,0,2.1,0.7,2.1,2.2v75.7
				c0,1.4-0.7,2.2-2.1,2.2H491.7z M471.8,143.7c4.7,0,8.4-1.6,10.9-4.7c2.5-3.1,3.8-8.3,3.8-15.5c0-7.4-1.3-12.6-3.9-15.8
				c-2.6-3.2-6.2-4.8-10.9-4.8c-1.8,0-3.5,0.3-4.9,0.9c-1.4,0.6-2.7,1.6-3.7,3.1c-1,1.5-1.8,3.6-2.4,6.3c-0.6,2.7-0.8,6.1-0.8,10.3
				c0,4.1,0.3,7.5,0.8,10.1c0.5,2.6,1.3,4.7,2.3,6.2c1,1.5,2.2,2.6,3.8,3.1C468.2,143.4,469.9,143.7,471.8,143.7z"/>
			<path id="XMLID_213_" class="st0" d="M552.4,144.6c0.6,1,0.6,1.9-0.1,2.8c-0.5,0.6-1.3,1.2-2.5,1.8c-1.2,0.6-2.6,1.2-4.2,1.7
				c-1.7,0.5-3.5,0.9-5.6,1.2c-2,0.3-4.2,0.5-6.5,0.5c-4.9,0-8.9-0.8-12.1-2.4c-3.2-1.6-5.8-3.7-7.7-6.4c-1.9-2.7-3.2-5.7-4-9.2
				c-0.7-3.5-1.1-7.1-1.1-10.9c0-4.2,0.4-8.1,1.3-11.7c0.8-3.6,2.2-6.8,4.1-9.5c1.9-2.7,4.3-4.8,7.3-6.4c3-1.6,6.6-2.4,10.9-2.4
				c3.2,0,6.2,0.5,9,1.4c2.8,0.9,5.2,2.4,7.2,4.3c2,1.9,3.6,4.4,4.8,7.3c1.2,2.9,1.7,6.3,1.7,10.2c0,2.1-0.2,3.8-0.6,5.2
				c-0.4,1.4-1,2.5-1.9,3.3c-0.9,0.8-2.1,1.4-3.5,1.8c-1.5,0.4-3.3,0.5-5.5,0.5h-21.7c0.2,2.3,0.6,4.4,1.1,6.3
				c0.5,1.9,1.3,3.6,2.4,5c1.1,1.4,2.4,2.5,4,3.3c1.6,0.8,3.5,1.2,5.9,1.2c2,0,4.1-0.3,6.1-0.8c2-0.5,4.2-1.2,6.4-1.9
				c1.1-0.4,1.7-0.5,2.1-0.3c0.3,0.1,0.5,0.3,0.7,0.5L552.4,144.6z M537.9,118.7c1.6,0,2.7-0.2,3.3-0.6c0.6-0.4,0.9-1.4,0.9-3.1
				c0-1.6-0.2-3.1-0.7-4.6c-0.5-1.5-1.1-2.8-1.9-3.9c-0.8-1.1-1.8-2-2.9-2.7c-1.1-0.7-2.4-1-3.8-1c-1.9,0-3.6,0.4-4.9,1.3
				c-1.3,0.9-2.5,2-3.4,3.5c-0.9,1.4-1.6,3.1-2,5c-0.5,1.9-0.8,3.9-0.9,6.1H537.9z"/>
			<path id="XMLID_216_" class="st0" d="M573.2,126.8c-4-1.2-6.8-3.2-8.6-6.1c-1.8-2.8-2.6-6-2.6-9.6c0-2.5,0.4-4.7,1.3-6.9
				c0.8-2.1,2.1-4,3.8-5.6c1.7-1.6,3.7-2.8,6.2-3.7c2.5-0.9,5.3-1.3,8.6-1.3c4.5,0,8.4,0.6,11.7,1.7c3.3,1.2,5.5,2.3,6.7,3.6
				c0.2,0.2,0.4,0.5,0.6,1c0.2,0.4,0,1-0.6,1.8l-2.2,3.5c-0.2,0.5-0.6,0.7-1.2,0.6c-0.6-0.1-1.1-0.2-1.6-0.4
				c-1.9-0.7-3.9-1.4-5.9-1.9c-2-0.5-4.1-0.8-6.4-0.8c-3.2,0-5.5,0.6-6.8,1.9c-1.4,1.3-2.1,3-2.1,5.1c0,1.2,0.3,2.3,1,3.2
				c0.6,0.9,1.7,1.6,3.2,2.1l12.4,3.7c4.6,1.4,7.8,3.4,9.5,6.1c1.7,2.7,2.6,6.1,2.6,10.3c0,3-0.6,5.5-1.8,7.7
				c-1.2,2.2-2.8,4-4.8,5.5c-2,1.5-4.4,2.6-7,3.3c-2.7,0.7-5.5,1.1-8.4,1.1c-2.3,0-4.4-0.1-6.5-0.4c-2-0.3-3.9-0.7-5.6-1.1
				c-1.7-0.5-3.2-1-4.4-1.7c-1.2-0.6-2.1-1.3-2.6-2.1c-0.6-0.9-0.7-1.9-0.1-2.8l2.2-3.5c0.3-0.4,0.7-0.5,1.2-0.5
				c0.5,0,1,0.1,1.5,0.3c2,0.7,4.2,1.4,6.4,1.9c2.2,0.5,4.6,0.8,7.2,0.8c2.2,0,4-0.2,5.4-0.6c1.4-0.4,2.5-1,3.2-1.7
				c0.8-0.7,1.3-1.5,1.6-2.3c0.3-0.9,0.4-1.7,0.4-2.6c0-1.7-0.6-2.9-1.9-3.8c-1.2-0.9-3.4-1.9-6.4-2.9L573.2,126.8z"/>
			<path id="XMLID_218_" class="st0" d="M650.7,151.4c-0.8,0-1.3-0.2-1.5-0.5c-0.2-0.3-0.4-0.9-0.6-1.7l-1.1-4.4h-0.2
				c-1.4,2.6-3.4,4.6-6,5.9c-2.6,1.3-5.7,2-9.3,2c-2.7,0-5.2-0.4-7.6-1.2c-2.4-0.8-4.5-2-6.4-3.6c-1.8-1.6-3.3-3.7-4.3-6.1
				c-1.1-2.5-1.6-5.3-1.6-8.7c0-3.5,0.6-6.3,1.7-8.6c1.2-2.3,2.8-4.1,4.8-5.4c2-1.3,4.4-2.3,7-2.8c2.7-0.5,5.5-0.8,8.6-0.8h10.9
				c-0.1-1.2-0.4-2.5-0.8-3.9c-0.4-1.4-1-2.8-1.9-4.1c-0.8-1.3-2-2.4-3.4-3.3c-1.4-0.9-3.3-1.4-5.5-1.4c-1.7,0-3.5,0.3-5.5,0.8
				c-1.9,0.5-4.1,1.2-6.5,1.9c-1,0.4-1.7,0.5-2,0.3c-0.4-0.1-0.6-0.3-0.7-0.5l-2.2-3.5c-0.6-1-0.6-1.9,0.1-2.8
				c0.5-0.6,1.3-1.2,2.5-1.8c1.2-0.6,2.6-1.2,4.2-1.7c1.6-0.5,3.4-0.9,5.4-1.2c2-0.3,4-0.5,6.1-0.5c4.6,0,8.4,0.8,11.3,2.3
				c3,1.6,5.3,3.7,7,6.3c1.7,2.7,2.9,5.7,3.6,9.2c0.7,3.5,1,7.1,1,11v26.6c0,1.4-0.7,2.2-2.1,2.2H650.7z M645.4,124.6h-11.2
				c-2.8,0-5.1,0.7-6.8,2.2c-1.7,1.4-2.6,3.5-2.6,6.1c0,1.1,0.2,2.3,0.5,3.5c0.4,1.3,0.9,2.4,1.7,3.5c0.8,1.1,1.8,2,3.1,2.7
				c1.3,0.7,2.9,1.1,4.8,1.1c3.3,0,5.8-1.3,7.7-3.8c1.8-2.5,2.8-6.6,2.8-12.1V124.6z"/>
			<path id="XMLID_221_" class="st0" d="M687.8,151.4c-4.8,0-8.4-1.4-10.9-4.2c-2.5-2.8-3.7-7-3.7-12.7v-30.8h-5.5
				c-1.4,0-2.1-0.7-2.1-2.2v-4.2c0-1.4,0.7-2.2,2.1-2.2h5.5v-8.3c0-0.8,0.2-1.3,0.5-1.5c0.4-0.2,0.9-0.4,1.6-0.7l8.5-3.2
				c0.7-0.3,1.2-0.2,1.6,0.3c0.4,0.5,0.5,1.1,0.5,1.9v11.6h6.7c1.4,0,2.1,0.7,2.1,2.2v4.2c0,1.4-0.7,2.2-2.1,2.2h-6.7v31.2
				c0,2.7,0.5,4.6,1.6,5.7c1.1,1.2,2.2,1.7,3.4,1.7h0.7c1.4,0,2.1,0.7,2.1,2.2v4.8c0,1.4-0.7,2.2-2.1,2.2H687.8z"/>
			<path id="XMLID_223_" class="st0" d="M739.9,151.4c-0.8,0-1.3-0.2-1.5-0.5c-0.2-0.3-0.4-0.9-0.6-1.7l-1.1-4.4h-0.2
				c-1.4,2.6-3.4,4.6-6,5.9c-2.6,1.3-5.7,2-9.3,2c-2.7,0-5.2-0.4-7.6-1.2c-2.4-0.8-4.5-2-6.4-3.6c-1.8-1.6-3.3-3.7-4.3-6.1
				c-1.1-2.5-1.6-5.3-1.6-8.7c0-3.5,0.6-6.3,1.7-8.6c1.2-2.3,2.8-4.1,4.8-5.4c2-1.3,4.4-2.3,7-2.8c2.7-0.5,5.5-0.8,8.6-0.8h10.9
				c-0.1-1.2-0.4-2.5-0.8-3.9c-0.4-1.4-1-2.8-1.9-4.1c-0.8-1.3-2-2.4-3.4-3.3c-1.4-0.9-3.3-1.4-5.5-1.4c-1.7,0-3.5,0.3-5.5,0.8
				c-1.9,0.5-4.1,1.2-6.5,1.9c-1,0.4-1.7,0.5-2,0.3c-0.4-0.1-0.6-0.3-0.7-0.5l-2.2-3.5c-0.6-1-0.6-1.9,0.1-2.8
				c0.5-0.6,1.3-1.2,2.5-1.8c1.2-0.6,2.6-1.2,4.2-1.7c1.6-0.5,3.4-0.9,5.4-1.2c2-0.3,4-0.5,6.1-0.5c4.6,0,8.4,0.8,11.3,2.3
				c3,1.6,5.3,3.7,7,6.3c1.7,2.7,2.9,5.7,3.6,9.2c0.7,3.5,1,7.1,1,11v26.6c0,1.4-0.7,2.2-2.1,2.2H739.9z M734.7,124.6h-11.2
				c-2.8,0-5.1,0.7-6.8,2.2c-1.7,1.4-2.6,3.5-2.6,6.1c0,1.1,0.2,2.3,0.5,3.5c0.4,1.3,0.9,2.4,1.7,3.5c0.8,1.1,1.8,2,3.1,2.7
				c1.3,0.7,2.9,1.1,4.8,1.1c3.3,0,5.8-1.3,7.7-3.8c1.8-2.5,2.8-6.6,2.8-12.1V124.6z"/>
		</g>
		<g id="XMLID_226_">
			<path id="XMLID_227_" class="st0" d="M92.7,142.1c0-0.1,0.1-0.1,0.1-0.2c0.9-1.8,0.2-3.9-1.5-4.8c-0.1,0-0.2-0.1-0.2-0.1
				l-19-10.2c0,0-0.1-0.1-0.1-0.1c-1.8-0.9-3.9-0.2-4.8,1.6c-0.9,1.8-0.2,3.9,1.6,4.8c0,0,0,0,0,0l16.1,8.6l-6.8,13
				c-0.1,0.2-0.3,0.4-0.4,0.6c-0.9,1.8-0.2,3.9,1.5,4.8c1.8,0.9,3.9,0.2,4.8-1.5c0-0.1,0.1-0.1,0.1-0.2L92.7,142.1z"/>
			<path id="XMLID_228_" class="st0" d="M71.6,126.7c-1.7-0.9-3.9-0.2-4.8,1.5l0,0l0,0c0,0,0,0,0,0c0,0,0,0,0,0l-13.7,27
				c0,0,0,0,0,0.1c-0.9,1.8-0.2,3.9,1.5,4.8c1.7,0.9,3.7,0.3,4.7-1.3l0,0l0-0.1c0,0,0.1-0.1,0.1-0.1c0,0,0-0.1,0.1-0.1L73,131.7
				c0-0.1,0.1-0.1,0.1-0.2c0-0.1,0.1-0.1,0.1-0.2l0-0.1l0,0C74,129.6,73.3,127.6,71.6,126.7z"/>
			<circle id="XMLID_229_" class="st1" cx="78.3" cy="105.1" r="7.3"/>
			<path id="XMLID_232_" class="st1" d="M155.2,125.2h-7.1V94.1h15.6c8.6,0,15.6,7,15.6,15.6c0,2.7-0.7,5.2-1.8,7.3l1.4,3
				c2-2.9,3.2-6.5,3.2-10.3c0-10.1-8.2-18.3-18.3-18.3h-18.3v1.4v1.4v33.9h0h2.7h8.5C156.1,127,155.7,126.1,155.2,125.2z"/>
			<path id="XMLID_235_" class="st1" d="M160,134.4h-20.5V84.8h24.8c13.7,0,24.8,11.1,24.8,24.8c0,6.7-2.7,12.9-7.1,17.3l1.2,2.6
				c5.3-5,8.6-12.1,8.6-20c0-15.2-12.4-27.5-27.5-27.5h-24.8h-2.7v2.7v49.6v2.7h2.7h21.9C161,136.2,160.5,135.3,160,134.4z"/>
			<g id="XMLID_236_">
				<path id="XMLID_239_" class="st1" d="M199.1,109.6c0,10.7-5,20.3-12.7,26.5l1.2,2.5c8.7-6.7,14.3-17.2,14.3-29.1
					c0-20.3-16.5-36.8-36.8-36.8h-26.8l-1.4,2.7H165C183.8,75.6,199.1,90.9,199.1,109.6z"/>
				<path id="XMLID_242_" class="st1" d="M164.9,143.7H131V86.6l-2.7,5.2v51.9v2.7h2.7h34c0.4,0,0.9,0,1.3,0
					C165.9,145.5,165.4,144.6,164.9,143.7z"/>
			</g>
			<g id="XMLID_243_">
				<path id="XMLID_246_" class="st1" d="M169.7,152.7c-1.3,0.1-2.6,0.2-4,0.2h-43.3v-50l-2.7,5.2v47.6h0.3h2.5h43.3
					c1.8,0,3.6-0.1,5.4-0.3C170.7,154.6,170.2,153.7,169.7,152.7z"/>
				<path id="XMLID_249_" class="st1" d="M165.7,63.6h-22.6l-1.4,2.7h24.1c23.9,0,43.3,19.4,43.3,43.3c0,14.6-7.3,27.6-18.5,35.4
					l1.2,2.5c12.1-8.3,20-22.2,20-37.9C211.7,84.3,191.1,63.6,165.7,63.6z"/>
			</g>
			<path id="XMLID_250_" class="st0" d="M202,155.2c-0.1-0.1-0.2-0.2-0.2-0.3L171.2,96c-2.2-1.2-4.8-1.9-7.5-1.9h-1.5l33.5,64.2
				c0,0.1,0,0.1,0.1,0.2c0.9,1.8,3.1,2.4,4.8,1.5C202.3,159.1,203,156.9,202,155.2z"/>
			<path id="XMLID_251_" class="st0" d="M189.3,155.2c0-0.1-0.1-0.1-0.1-0.2l-31.7-60.9h-8l33.3,63.9l0,0c0.1,0.2,0.1,0.4,0.2,0.5
				c0.9,1.8,3.1,2.4,4.8,1.5C189.6,159.1,190.3,156.9,189.3,155.2z"/>
			<g id="XMLID_252_">
				<path id="XMLID_253_" class="st0" d="M176.9,155.3L176.9,155.3l-28.8-55.2v15.5l22.2,42.6c0,0.1,0.1,0.2,0.1,0.3
					c0.9,1.8,3.1,2.4,4.8,1.5C177,159,177.7,157,176.9,155.3z"/>
			</g>
			<path id="XMLID_254_" class="st0" d="M113.1,63.6l-29.6,56.8l-14.6-7.7l-1.5-0.8c0,0,0,0-0.1,0c-1.7-0.9-3.9-0.2-4.8,1.5l0,0l0,0
				c0,0,0,0,0,0c0,0,0,0,0,0l-1.6,3.1l0,0l-3.5,6.5c-0.9,1.8-0.2,3.9,1.5,4.8c1.8,0.9,3.9,0.2,4.8-1.5c0.1-0.1,0.1-0.2,0.1-0.4
				l3.3-6.2l16.4,8.6l0,0c1.7,0.8,3.7,0.2,4.6-1.4l0,0l0.1-0.2c0,0,0,0,0,0c0,0,0,0,0,0l30-57.6l2.9-5.6H113.1z"/>
			<path id="XMLID_255_" class="st0" d="M125.6,63.6l-33.9,65c0,0.1-0.1,0.1-0.1,0.2c0,0.1,0,0.1-0.1,0.2l-0.1,0.2l0,0
				c-0.7,1.7,0,3.6,1.7,4.5c1.7,0.9,3.7,0.3,4.7-1.3l0,0l35.7-68.6H125.6z"/>
			<path id="XMLID_256_" class="st0" d="M146.4,63.6h-8.1l-47.7,91.5c0,0.1-0.1,0.1-0.1,0.2c0,0.1,0,0.1-0.1,0.2l0,0.1l0,0
				c-0.7,1.7-0.1,3.7,1.6,4.6c1.7,0.9,3.7,0.3,4.7-1.3l0,0l0-0.1c0,0,0.1-0.1,0.1-0.1c0,0,0-0.1,0.1-0.1l9-17.2l0,0L146.4,63.6z"/>
		</g>
	</g>
</g>
</svg>
